<svg id="visual" viewBox="0 0 960 540" width="960" height="540" xmlns="http://www.w3.org/2000/svg" xmlns:xlink="http://www.w3.org/1999/xlink" version="1.1"><rect x="0" y="0" width="960" height="540" fill="#FFFFFF"></rect><defs><linearGradient id="grad1_0" x1="43.8%" y1="0%" x2="100%" y2="100%"><stop offset="14.444444444444446%" stop-color="#f3c754" stop-opacity="1"></stop><stop offset="85.55555555555554%" stop-color="#f3c754" stop-opacity="1"></stop></linearGradient></defs><defs><linearGradient id="grad1_1" x1="43.8%" y1="0%" x2="100%" y2="100%"><stop offset="14.444444444444446%" stop-color="#f3c754" stop-opacity="1"></stop><stop offset="85.55555555555554%" stop-color="#fee2ab" stop-opacity="1"></stop></linearGradient></defs><defs><linearGradient id="grad1_2" x1="43.8%" y1="0%" x2="100%" y2="100%"><stop offset="14.444444444444446%" stop-color="#ffffff" stop-opacity="1"></stop><stop offset="85.55555555555554%" stop-color="#fee2ab" stop-opacity="1"></stop></linearGradient></defs><defs><linearGradient id="grad2_0" x1="0%" y1="0%" x2="56.3%" y2="100%"><stop offset="14.444444444444446%" stop-color="#f3c754" stop-opacity="1"></stop><stop offset="85.55555555555554%" stop-color="#f3c754" stop-opacity="1"></stop></linearGradient></defs><defs><linearGradient id="grad2_1" x1="0%" y1="0%" x2="56.3%" y2="100%"><stop offset="14.444444444444446%" stop-color="#fee2ab" stop-opacity="1"></stop><stop offset="85.55555555555554%" stop-color="#f3c754" stop-opacity="1"></stop></linearGradient></defs><defs><linearGradient id="grad2_2" x1="0%" y1="0%" x2="56.3%" y2="100%"><stop offset="14.444444444444446%" stop-color="#fee2ab" stop-opacity="1"></stop><stop offset="85.55555555555554%" stop-color="#ffffff" stop-opacity="1"></stop></linearGradient></defs><g transform="translate(960, 0)"><path d="M0 486C-61.8 478.7 -123.7 471.4 -186 449C-248.3 426.6 -311.1 389.2 -334.5 334.5C-357.8 279.8 -341.6 207.9 -360.3 149.2C-379 90.6 -432.5 45.3 -486 0L0 0Z" fill="#fff0d5"></path><path d="M0 324C-41.2 319.1 -82.4 314.3 -124 299.3C-165.5 284.4 -207.4 259.4 -223 223C-238.5 186.5 -227.8 138.6 -240.2 99.5C-252.7 60.4 -288.3 30.2 -324 0L0 0Z" fill="#fad480"></path><path d="M0 162C-20.6 159.6 -41.2 157.1 -62 149.7C-82.8 142.2 -103.7 129.7 -111.5 111.5C-119.3 93.3 -113.9 69.3 -120.1 49.7C-126.3 30.2 -144.2 15.1 -162 0L0 0Z" fill="#f3c754"></path></g><g transform="translate(0, 540)"><path d="M0 -486C71.3 -486.8 142.6 -487.5 186 -449C229.4 -410.5 245 -332.8 285 -285C324.9 -237.2 389.3 -219.3 426.8 -176.8C464.4 -134.3 475.2 -67.1 486 0L0 0Z" fill="#fff0d5"></path><path d="M0 -324C47.5 -324.5 95 -325 124 -299.3C152.9 -273.7 163.3 -221.8 190 -190C216.6 -158.1 259.5 -146.2 284.6 -117.9C309.6 -89.5 316.8 -44.8 324 0L0 0Z" fill="#fad480"></path><path d="M0 -162C23.8 -162.3 47.5 -162.5 62 -149.7C76.5 -136.8 81.7 -110.9 95 -95C108.3 -79.1 129.8 -73.1 142.3 -58.9C154.8 -44.8 158.4 -22.4 162 0L0 0Z" fill="#f3c754"></path></g></svg>