<svg id="visual" viewBox="0 0 960 300" width="960" height="300" xmlns="http://www.w3.org/2000/svg" xmlns:xlink="http://www.w3.org/1999/xlink" version="1.1"><path d="M0 87L22.8 88C45.7 89 91.3 91 137 91.2C182.7 91.3 228.3 89.7 274 92C319.7 94.3 365.3 100.7 411.2 104.7C457 108.7 503 110.3 548.8 108.8C594.7 107.3 640.3 102.7 686 100.5C731.7 98.3 777.3 98.7 823 94.7C868.7 90.7 914.3 82.3 937.2 78.2L960 74L960 0L937.2 0C914.3 0 868.7 0 823 0C777.3 0 731.7 0 686 0C640.3 0 594.7 0 548.8 0C503 0 457 0 411.2 0C365.3 0 319.7 0 274 0C228.3 0 182.7 0 137 0C91.3 0 45.7 0 22.8 0L0 0Z" fill="#f3f3f3"></path><path d="M0 87L22.8 85.7C45.7 84.3 91.3 81.7 137 77.2C182.7 72.7 228.3 66.3 274 67.2C319.7 68 365.3 76 411.2 77.7C457 79.3 503 74.7 548.8 73.3C594.7 72 640.3 74 686 72.7C731.7 71.3 777.3 66.7 823 69.8C868.7 73 914.3 84 937.2 89.5L960 95L960 0L937.2 0C914.3 0 868.7 0 823 0C777.3 0 731.7 0 686 0C640.3 0 594.7 0 548.8 0C503 0 457 0 411.2 0C365.3 0 319.7 0 274 0C228.3 0 182.7 0 137 0C91.3 0 45.7 0 22.8 0L0 0Z" fill="#f7e7cc"></path><path d="M0 78L22.8 77.8C45.7 77.7 91.3 77.3 137 77.3C182.7 77.3 228.3 77.7 274 76C319.7 74.3 365.3 70.7 411.2 67C457 63.3 503 59.7 548.8 56.3C594.7 53 640.3 50 686 50.5C731.7 51 777.3 55 823 60.3C868.7 65.7 914.3 72.3 937.2 75.7L960 79L960 0L937.2 0C914.3 0 868.7 0 823 0C777.3 0 731.7 0 686 0C640.3 0 594.7 0 548.8 0C503 0 457 0 411.2 0C365.3 0 319.7 0 274 0C228.3 0 182.7 0 137 0C91.3 0 45.7 0 22.8 0L0 0Z" fill="#f8dca5"></path><path d="M0 35L22.8 38.3C45.7 41.7 91.3 48.3 137 48.3C182.7 48.3 228.3 41.7 274 42.2C319.7 42.7 365.3 50.3 411.2 53.5C457 56.7 503 55.3 548.8 54.3C594.7 53.3 640.3 52.7 686 51.5C731.7 50.3 777.3 48.7 823 46C868.7 43.3 914.3 39.7 937.2 37.8L960 36L960 0L937.2 0C914.3 0 868.7 0 823 0C777.3 0 731.7 0 686 0C640.3 0 594.7 0 548.8 0C503 0 457 0 411.2 0C365.3 0 319.7 0 274 0C228.3 0 182.7 0 137 0C91.3 0 45.7 0 22.8 0L0 0Z" fill="#f7d17e"></path><path d="M0 19L22.8 20.5C45.7 22 91.3 25 137 27.2C182.7 29.3 228.3 30.7 274 31.5C319.7 32.3 365.3 32.7 411.2 29.3C457 26 503 19 548.8 16C594.7 13 640.3 14 686 17.5C731.7 21 777.3 27 823 29.3C868.7 31.7 914.3 30.3 937.2 29.7L960 29L960 0L937.2 0C914.3 0 868.7 0 823 0C777.3 0 731.7 0 686 0C640.3 0 594.7 0 548.8 0C503 0 457 0 411.2 0C365.3 0 319.7 0 274 0C228.3 0 182.7 0 137 0C91.3 0 45.7 0 22.8 0L0 0Z" fill="#f3c754"></path></svg>